<?xml version="1.0" encoding="utf-8"?>
<!-- Generator: Adobe Illustrator 27.3.0, SVG Export Plug-In . SVG Version: 6.00 Build 0)  -->
<svg version="1.1" id="Layer_1" xmlns="http://www.w3.org/2000/svg" xmlns:xlink="http://www.w3.org/1999/xlink" x="0px" y="0px"
	 viewBox="0 0 554.5 89.4" style="enable-background:new 0 0 554.5 89.4;" xml:space="preserve">
<style type="text/css">
	.st0{fill:#262626;}
</style>
<path class="st0" d="M76.1,0h26.2c16.1,0,24.6,9.8,24.6,23.1c0,13.4-8.7,23.1-24.8,23.1H88.7v23.6H76.1V0z M100.4,35.8
	c9.4,0,13.6-5.3,13.6-12.7s-4.2-12.5-13.7-12.5H88.7v25.3C88.8,35.8,100.4,35.8,100.4,35.8z M134,55.1c0-11.8,9.7-14.8,19.9-15.9
	c9.2-1,13-1.2,13-4.7v-0.2c0-5.1-3.1-8.1-8.9-8.1c-6,0-9.5,3.1-10.7,6.6l-11.6-1.6c2.7-9.5,11.2-14.5,22.2-14.5
	c10,0,21.3,4.2,21.3,18v35h-11.9v-7.2h-0.4c-2.2,4.4-7.2,8.2-15.4,8.2C141.5,70.9,134,65.4,134,55.1L134,55.1z M166.9,51v-6.2
	c-1.6,1.3-8.1,2.1-11.3,2.6c-5.5,0.8-9.6,2.8-9.6,7.5c0,4.5,3.7,6.9,8.8,6.9C162.2,61.8,166.9,56.9,166.9,51z M191.6,17.5h12.1v8.7
	h0.7c1.9-3.8,5.7-9.3,15-9.3c12.1,0,21.6,9.5,21.6,26.9c0,17.2-9.2,27-21.6,27c-9,0-13.1-5.4-15-9.2h-0.5v27.9h-12.3
	C191.6,89.4,191.6,17.5,191.6,17.5z M216,60.6c8.1,0,12.4-7.2,12.4-17c0-9.7-4.2-16.7-12.4-16.7c-7.9,0-12.3,6.6-12.3,16.7
	S208.1,60.6,216,60.6z M249.3,43.9c0-16.2,9.8-27.2,24.8-27.2c12.9,0,23.9,8.1,23.9,26.5V47h-36.5c0.1,9,5.4,14.2,13.4,14.2
	c5.3,0,9.4-2.3,11.1-6.7l11.5,1.3c-2.2,9.1-10.6,15.1-22.8,15.1C259,70.8,249.3,60.4,249.3,43.9z M286.2,38.7
	c-0.1-7.1-4.8-12.3-11.9-12.3c-7.4,0-12.3,5.6-12.7,12.3H286.2z M308.5,17.5h12v8.7h0.5c1.9-6.1,6.9-9.5,12.9-9.5
	c1.4,0,3.3,0.1,4.4,0.3v11.4c-1.1-0.3-3.6-0.7-5.7-0.7c-6.8,0-11.8,4.7-11.8,11.4v30.8h-12.3V17.5z M338.7,69.8L363.3,0h15.6
	l24.6,69.8H390l-5.8-17.2H358l-5.8,17.2H338.7z M380.8,42.4l-9.4-28.1h-0.5l-9.4,28.1H380.8z M445.6,17.5h12.3v52.4h-12v-9.3h-0.5
	c-2.4,5.9-7.9,10-15.7,10c-10.3,0-17.5-7.1-17.5-19.7V17.5h12.3v31.4c0,6.6,4,10.8,9.9,10.8c5.5,0,11.1-4,11.1-11.9V17.5H445.6z
	 M496.7,27h-10.3v27.1c0,5,2.5,6.1,5.6,6.1c1.5,0,2.9-0.3,3.6-0.5l2.1,9.6c-1.3,0.4-3.8,1.1-7.3,1.2c-9.3,0.3-16.4-4.6-16.4-14.4V27
	h-7.4v-9.5h7.4V4.9h12.3v12.5h10.4L496.7,27L496.7,27z M520.5,69.8h-12.3V0h12.1v26.4h0.6c2.4-5.9,7.5-9.6,15.6-9.6
	c10.9,0,18,7.1,18,19.7v33.3h-12.3V38.4c0-7.1-3.8-11.2-10.3-11.2c-6.6,0-11.3,4.4-11.3,11.9C520.5,39.1,520.5,69.8,520.5,69.8z"/>
<path class="st0" d="M0,33.8c4.8,0.9,9.7,1.8,14.5,2.7c0-13,7-18.8,17.3-18.8s17.5,5.8,17.5,18.7v16H0v17.4h63.6V34
	c0-22.2-13.3-34.1-31.8-34.1C13.5-0.1,0,11.7,0,33.8z"/>
</svg>
